# xmcd
#
# Track frame offsets:
#	150
#	11554
#	23132
#	34799
#	48264
#	61692
#	73208
#	84986
#	93649
#	105165
#	117284
#	127898
#	139713
#	150966
#	162145
#	174936
#	185176
#	199542
#	210832
#	222873
#	236226
#	246717
#	259634
#	271824
#	283902
#
# Disc length: 3935 seconds
#
# Revision: 1
# Processed by: cddbd v1.5.2PL0 Copyright (c) Steve Scherf et al.
# Submitted via: audiograbber 1.83.01
#
DISCID=550f5d19
DTITLE=Jim Reeves - Moonlight and roses (welcome to my world)
DYEAR=1996
DGENRE=Country
TTITLE0=01 - Moonlight and roses
TTITLE1=02 - Mexicali Rose
TTITLE2=03 - Carolina Moon
TTITLE3=04 - Rosa Rio
TTITLE4=05 - Oh! What it seemed to be
TTITLE5=06 - What's in it for me
TTITLE6=07 - Roses
TTITLE7=08 - One dozen roses
TTITLE8=09 - Moon river
TTITLE9=10 - There's a new moon over my shoulder
TTITLE10=11 - It's onlyh a paper moon
TTITLE11=12 - When I lost you
TTITLE12=13 - I guess I'm crazy
TTITLE13=14 - Angels don't lie
TTITLE14=15 - Not unitl the next time
TTITLE15=16 - I won't come in while he's there
TTITLE16=17 - This is it
TTITLE17=18 - Make the world go away
TTITLE18=19 - There's that smile again
TTITLE19=20 - You'll never know
TTITLE20=21 Is it really over
TTITLE21=22 - I can't stop loving you
TTITLE22=23 - In the misty moonlight
TTITLE23=24 - Missing you
TTITLE24=25 - Maureen
EXTD=
EXTT0=
EXTT1=
EXTT2=
EXTT3=
EXTT4=
EXTT5=
EXTT6=
EXTT7=
EXTT8=
EXTT9=
EXTT10=
EXTT11=
EXTT12=
EXTT13=
EXTT14=
EXTT15=
EXTT16=
EXTT17=
EXTT18=
EXTT19=
EXTT20=
EXTT21=
EXTT22=
EXTT23=
EXTT24=
PLAYORDER=
